<svg width="550" height="550" viewBox="0 0 550 550" fill="none" xmlns="http://www.w3.org/2000/svg">
<g clip-path="url(#clip0_8_354)">
<rect width="550" height="550" fill="#F5F7FB"/>
<path d="M244.922 319.42H246.615C246.564 317.557 244.916 316.205 242.553 316.205C240.217 316.205 238.428 317.54 238.428 319.545C238.428 321.165 239.587 322.114 241.456 322.619L242.831 322.994C244.075 323.324 245.036 323.733 245.036 324.767C245.036 325.903 243.95 326.653 242.456 326.653C241.104 326.653 239.979 326.051 239.876 324.784H238.115C238.229 326.892 239.859 328.193 242.467 328.193C245.2 328.193 246.774 326.756 246.774 324.784C246.774 322.688 244.905 321.875 243.428 321.511L242.291 321.216C241.382 320.983 240.172 320.557 240.178 319.443C240.178 318.455 241.081 317.722 242.513 317.722C243.848 317.722 244.797 318.347 244.922 319.42ZM252.81 319.273H251.02V317.182H249.321V319.273H248.043V320.636H249.321V325.79C249.315 327.375 250.526 328.142 251.866 328.114C252.406 328.108 252.77 328.006 252.969 327.932L252.662 326.528C252.548 326.551 252.338 326.602 252.065 326.602C251.514 326.602 251.02 326.42 251.02 325.438V320.636H252.81V319.273ZM257.229 328.193C258.672 328.193 259.484 327.46 259.808 326.807H259.876V328H261.536V322.205C261.536 319.665 259.536 319.159 258.149 319.159C256.57 319.159 255.115 319.795 254.547 321.386L256.143 321.75C256.393 321.131 257.03 320.534 258.172 320.534C259.268 320.534 259.831 321.108 259.831 322.097V322.136C259.831 322.756 259.195 322.744 257.626 322.926C255.973 323.119 254.28 323.551 254.28 325.534C254.28 327.25 255.57 328.193 257.229 328.193ZM257.598 326.83C256.638 326.83 255.945 326.398 255.945 325.557C255.945 324.648 256.751 324.324 257.734 324.193C258.286 324.119 259.592 323.972 259.837 323.727V324.852C259.837 325.886 259.013 326.83 257.598 326.83ZM263.798 328H265.497V322.67C265.497 321.528 266.378 320.705 267.582 320.705C267.935 320.705 268.332 320.767 268.469 320.807V319.182C268.298 319.159 267.963 319.142 267.747 319.142C266.724 319.142 265.849 319.722 265.531 320.659H265.44V319.273H263.798V328ZM274.528 319.273H272.739V317.182H271.04V319.273H269.761V320.636H271.04V325.79C271.034 327.375 272.244 328.142 273.585 328.114C274.125 328.108 274.489 328.006 274.688 327.932L274.381 326.528C274.267 326.551 274.057 326.602 273.784 326.602C273.233 326.602 272.739 326.42 272.739 325.438V320.636H274.528V319.273ZM288.233 331.273V319.273H286.574V320.688H286.432C286.131 320.148 285.545 319.159 283.926 319.159C281.818 319.159 280.261 320.824 280.261 323.653C280.261 326.477 281.795 328.17 283.909 328.17C285.5 328.17 286.125 327.199 286.432 326.642H286.534V331.273H288.233ZM286.568 323.636C286.568 325.472 285.75 326.722 284.29 326.722C282.773 326.722 281.977 325.386 281.977 323.636C281.977 321.903 282.75 320.602 284.29 320.602C285.773 320.602 286.568 321.812 286.568 323.636ZM296.045 324.381C296.051 325.864 294.949 326.568 293.994 326.568C292.943 326.568 292.216 325.807 292.216 324.619V319.273H290.517V324.824C290.517 326.989 291.705 328.114 293.381 328.114C294.693 328.114 295.585 327.42 295.989 326.489H296.08V328H297.75V319.273H296.045V324.381ZM300.033 328H301.732V319.273H300.033V328ZM300.891 317.926C301.476 317.926 301.964 317.472 301.964 316.915C301.964 316.358 301.476 315.898 300.891 315.898C300.3 315.898 299.817 316.358 299.817 316.915C299.817 317.472 300.3 317.926 300.891 317.926ZM303.835 328H310.841V326.523H306.136V326.443L310.682 320.511V319.273H303.989V320.75H308.562V320.83L303.835 326.835V328Z" fill="#F5F7FB"/>
<path fill-rule="evenodd" clip-rule="evenodd" d="M-5.55191 436.906C35.9614 433.775 82.2425 422.279 112.306 451.109C145.581 483.02 155.282 534.703 142.701 579.081C130.767 621.18 93.7448 652.092 51.8208 664.476C16.5281 674.902 -15.4332 650.605 -49.1007 635.738C-85.3375 619.737 -133.641 614.993 -145.741 577.239C-158.358 537.868 -132.269 496.588 -103.064 467.353C-77.7328 441.995 -41.2727 439.6 -5.55191 436.906Z" fill="#DEEBF8"/>
<path fill-rule="evenodd" clip-rule="evenodd" d="M455.409 81.3947C427.121 50.8508 389.318 21.7816 393.173 -19.6933C397.439 -65.599 431.854 -105.359 474.419 -123.133C514.797 -139.994 562.035 -130.256 597.822 -105.149C627.947 -84.0141 628.823 -43.8756 638.141 -8.27104C648.17 30.0508 674.521 70.8106 652.501 103.779C629.538 138.159 580.991 143.432 539.931 138.768C504.318 134.723 479.751 107.677 455.409 81.3947Z" fill="#FFFAD1"/>
</g>
<defs>
<clipPath id="clip0_8_354">
<rect width="550" height="550" fill="white"/>
</clipPath>
</defs>
</svg>
